<?xml version="1.0" encoding="UTF-8"?>
<svg xmlns="http://www.w3.org/2000/svg" xmlns:xlink="http://www.w3.org/1999/xlink" viewBox="0 0 96 96" width="96px" height="96px">
<g id="surface22658527">
<path style=" stroke:none;fill-rule:nonzero;fill:rgb(19.215687%,21.568628%,86.274511%);fill-opacity:1;" d="M 12 20 C 10.558594 19.980469 9.214844 20.738281 8.488281 21.984375 C 7.761719 23.230469 7.761719 24.769531 8.488281 26.015625 C 9.214844 27.261719 10.558594 28.019531 12 28 L 84 28 C 85.441406 28.019531 86.785156 27.261719 87.511719 26.015625 C 88.238281 24.769531 88.238281 23.230469 87.511719 21.984375 C 86.785156 20.738281 85.441406 19.980469 84 20 Z M 12 44 C 10.558594 43.980469 9.214844 44.738281 8.488281 45.984375 C 7.761719 47.230469 7.761719 48.769531 8.488281 50.015625 C 9.214844 51.261719 10.558594 52.019531 12 52 L 84 52 C 85.441406 52.019531 86.785156 51.261719 87.511719 50.015625 C 88.238281 48.769531 88.238281 47.230469 87.511719 45.984375 C 86.785156 44.738281 85.441406 43.980469 84 44 Z M 12 68 C 10.558594 67.980469 9.214844 68.738281 8.488281 69.984375 C 7.761719 71.230469 7.761719 72.769531 8.488281 74.015625 C 9.214844 75.261719 10.558594 76.019531 12 76 L 84 76 C 85.441406 76.019531 86.785156 75.261719 87.511719 74.015625 C 88.238281 72.769531 88.238281 71.230469 87.511719 69.984375 C 86.785156 68.738281 85.441406 67.980469 84 68 Z M 12 68 "/>
</g>
</svg>
